<?xml version="1.0" encoding="UTF-8"?><svg id="a" xmlns="http://www.w3.org/2000/svg" viewBox="0 0 1024 1024"><defs><style>.b{fill:#b87b9c;}.c{fill:#db642a;}.d{fill:#efcd8d;}.e{fill:#fff;}.f{fill:#d29834;}.g{fill:#f2c04d;}</style></defs><path class="d" d="M1017.56,1021.7c-7.36-15.3-15.38-29.83-24.62-44.1-9.04-13.97-19.94-25.9-32.05-37.18l-7.15-6.66-9.16-8.63-6.15-5.66c-22.23-20.49-44.7-38.91-72.93-50.81l-10.04-4.23c-.46-.19-1.05.97-1.16,1.47-1.89,8.32-4.88,15.84-8.64,23.43-11.74,23.66-25.07,40.37-42.92,59.47l-18.87,18.86c-14.65,13.74-30.38,25.64-47.73,35.73-10.41,6.05-21.34,9.52-33.4,10.05l-9.32-.06c-4.61-.03-8.47-1.68-12.91-4.04-.08-.21-.07,1.5-.03,2.18l.65,12.29-1.01.14-4.45-.15-.52-10.59-1.04-7.65c-.18-1.29-1.49-2.66-2.31-3.74l-7.77-10.23-1.19-1.66c-.24-.34-.76.8-.95,1.33l-3.85,6.43c-2.36,3.94-5.8,7.12-9.47,9.85l-.56.42-.67.43c-4.06,2.62-8.18,4.75-12.87,5.96l-.81.21-1.07.1c-.13.12-.79.69-.73.65l.34,1.09,1.36,4.32.26.81.6,1.85c.15.46-1.37.62-1.91.62h-1.18s-1.15,0-1.15,0c-.4,0-1.2-.8-1.31-1.21l-1.99-7c-7.77.11-15.06-1.65-21.75-5.85-2.94,3.81-5.21,7.3-6.99,11.41-.49,1.13-1.2,2.72-2.09,2.68l-1.34-.06-1.06-.04c-.38-.02-2.09.17-1.97-.19l.68-2.03.31-.79c2.24-5.11,4.97-9.68,8.43-14.2-7.66-7.61-11.31-17.45-10.51-28.52-9.62,6.54-18.05,14.7-24.85,24.42l-.65.54-4.37,7.24-.35.74-3.35,8.28-1.66,4.58-5.04-.07.25-.84.22-.74.22-.78.23-.8.24-.83.21-.72.29-.8.27-.73.26-.74c2.34-6.63,5.39-12.73,9.74-18.25l.46-.59.45-.58.55-.7c-.13-.1-.43-.34-.43-.34l-.89.28-.78.24-.84.26-.69.19-.88.19-.84.18-.84.18-.85.18c-5.9,1.24-12.28,1.74-16.84-2.38l-.57-.51-.46-.59-.43-.58-.45-.6-.41-.55-.65-.65c-4.53-12.38-1.59-25.97,5.23-37.26l.33-.71.31-.67.38-.62.38-.64.38-.65.39-.67.35-.56.43-.65.4-.61.4-.61.4-.62.4-.62.4-.62.4-.61.41-.63.38-.6.4-.65.39-.64.38-.63.38-.63.38-.64.38-.64.37-.63.37-.64.38-.65.38-.66.38-.65.37-.64.37-.63.38-.65.39-.67.34-.57.43-.65.41-.61.41-.61.4-.62.4-.62.39-.59.38-.66.38-.65.37-.63.41-.68,2.76-3.74.6-.81c.13-.17-.83-.12-1.11-.11l-7.12.33-32.61.07c-27.92.06-57.66-3.09-84.87-9.4-15.85-3.68-31.09-7.83-46.15-13.92-8.1-3.28-15.95-5.68-24.44-7.69-10.84-2.56-21.69-1.85-32,2.43-12.26,5.3-22.95,12.74-31.44,23.02-.76.26-2.1.55-2.62.26-.97-.53-1.65-1.88-1.26-3.05l.27-.79c7.14-8.43,15.56-15.42,25.48-20.3l.65-.41.63-.4.73-.42,7.67-3.39.78-.35.77-.28,8.31-2.11,1.16-.08.83-.17,1.06-.21c.17-.03.2-.27.08-.39-.13-.13-.78-.64-1-.73l-7.51-2.9c-6.01-2.32-11.9-3.92-18.28-4.65-6.4-.74-12.19.57-17.75,3.78-7.34,4.23-14.25,8.91-20.89,14.17-3.16,2.5-5.36,5.45-7.55,8.74-.43.65-2.61.55-3.12-.02-4.87-5.47,15.56-19.15,25.82-25.39h0s.03-.02.03-.02c1.29-.78,2.42-1.45,3.31-1.97l1.03-.52c-.16-.19-.36-.37-.48-.49-10.49-10.72-19.32-22.47-27.46-35.12l-18.77-32.27-21.22-42.38-19.58-42.87c-7.08-15.49-11.43-31.62-14.11-48.56l-5.81,5.01c-7.86,6.77-16.23,12.62-25.82,16.98-17.51,7.96-35.92,13.16-55,15.79l-20.35,1.18c-15.41-.69-30.38-2.94-44.85-8.1-8.04-2.87-15.33-5.88-22.8-10.95-2.98,10.04-3.32,20.33-1.06,30.52l6.52,29.38,7.6,26.65c6.43,18.04,12.87,35.81,20.95,53.27,13.49,29.14,29.25,56.91,46.51,83.96l29.19,42.43,28.68,40.87c4.63,6.6,9.7,12.59,15.15,18.29.94,1.01,2.05,2.19,3.24,3.47h842.98v-.14l-3.66.14c-1.51.06-2.07-.82-2.78-2.3Z"/><path class="g" d="M116.39,549.87l15.27,12.64c5.14,4.25,9.17,8.97,12.51,15.28,1.64-8.06,5.52-14.48,11.38-19.67l10.87-8.01c-1.86-14.55-6.95-38.93-17.54-48.34l-9.17-8.14c-14.37-10.3-31.79-14.42-49.4-13.36-12.64.76-23.28,3.61-32.02,12.99-8.86,9.51-16.89,24.52-20.6,37.29,29.56-4.09,56.44-.96,78.69,19.33Z"/><path class="g" d="M24.8,663.91l2.28,20.81-1.46,5.17,9.67,5.49c22.94,11.14,51.81,15.87,77.18,12.19,24.22-3.52,55.09-12.64,73.51-28.81l14.48-12.72,14.37-16.09c8.13-10.01,13.51-21.15,15.61-33.91,1.61-9.78,2.15-19.32,1.89-29.26-.19-7.12-1.67-13.75-4.72-20.1-4.03-8.38-8.66-17.13-17.93-19.4-7.96-1.95-16.19-2.24-24.2-.03-9.8,2.71-18.47,7.71-26.07,14.25-5.29,4.55-8.88,10.33-10.17,17.01-1.06,5.49,1.16,9.35,5.05,12.74,4.41,3.86,8.66,6.93,14.67,7.99,4.91.87,10.16,2.5,15.01.73l14.2-5.19c1.41-.51,3.07.39,3.35,1.63.2.88-.47,2.56-1.67,3.09-5.01,2.22-9.62,4.12-14.69,5.38-5.65,1.4-11.29.42-16.85-.62-9.62-1.79-16.68-7.54-22.89-15.42-1.39,12.38-13.74,25.99-24.25,32.73-13.24,8.5-27.51,11.7-43.09,12.09-15.74.4-30.19-4.71-34.23-20.74-1.71-6.77.06-13.03,5.1-17.93,8.59-8.34,17.27-12.46,29.44-11.93.86.04,1.95,2.15,1.66,2.95-1.13,3.15-6.99,1.28-13.59,3.51-5.54,1.87-10.26,5.33-14.24,9.41-2.89,2.96-4.36,6.5-3.85,10.62,1.13,9.21,7.67,15.59,16.63,17.72,7.59,1.8,15.27,1.57,23.12.63,9.53-1.14,18.1-3.83,26.54-8.28,4.32-2.28,7.97-5.13,11.54-8.5,11.1-10.47,20.44-25.03,9.21-37.72-3.7-4.18-7.78-7.72-12.12-11.3l-13.9-11.49c-9.55-7.89-20.57-12.88-32.94-15.02-11.68-2.02-23.63-2.18-35.37-.23-11.01,1.83-20.83,7.71-27.16,16.65-8.81,12.44-5.95,35.09-1.81,49.99,4.36,15.68,8.75,30.99,10.8,47.13l1.87,14.76ZM106.47,686.77l17.84-13.01,9.86-7.65c7.66-7.36,13.16-16.42,16.95-26.33,2.57-6.73.68-11.25,3.61-12.12,7.67-2.27,1.12,24.26-16.77,41.87l-8.63,6.81-19.76,14.4c-1.42,1.04-2.98.73-3.82-.37-.68-.9-.43-2.76.72-3.6Z"/><path class="g" d="M171.26,547.56c11.12-6.16,22.93-8.22,35.29-6.12,3.34-13.49.96-27.06-2.83-40.37-5.66-15.86-18.56-24.82-35.59-23.67-10.72.72-20.92,3.8-30.77,8.51l9.18,6.6c17.57,14.28,20.93,33.51,24.72,55.07Z"/><path class="g" d="M477.82,440.29l-12.58-2.1c-.93-.16-2.04-1.83-1.96-2.67.07-.74,1.27-2.33,2.15-2.19l18.09,2.77c5.61.86,9.42,3.94,13.58,7.42,5.59,4.69,10.43,9.44,14.51,15.59,2.1,3.17,4.47,6.36,7.32,8.96,7.23,6.6,17.06,10.03,26.83,8.75l15.28-2-3.41-10.35c-2.11-6.39-2.5-12.88-2.25-19.69.05-1.27,1.3-2.42,2.36-2.59.86-.14,2.69,1.16,2.65,2.26-.27,8.04.78,15.48,3.44,23.09,1.22,3.5,2.37,7.41,5.35,9.88,6.55,5.45,14.96,8.14,23.45,8.47l13.25.52c5.39.21,10.86-.18,16.26-.94,11.9-1.67,23.11-1.13,34.87.77,8.87,1.43,17.56,1.92,26.22,4.46,7.55,2.22,13.84,6.64,20.66,10.37l4.02,2.2c1.22.67,1.71,2.5,1,3.59-.7,1.08-2.55,1.41-3.74.74l-5.28-2.99-6.03-3.7c-5.46-3.35-11.24-5.55-17.89-6.64,14.86,28.65,20.95,64.08,7.71,94.06l48.1-1.75c4.21-4.98,9.05-8.27,15.1-10.5,15.37-5.68,29.67-1.66,42.33,8.26-.01-12.62,2.79-24.63,7.57-36.22,3.53-8.56,6.64-16.88,8.68-25.95,2.47-11.05,3.87-21.94,3.89-33.29l.11-47.54-.32-7.23c.12-12.03-1.56-23.47-4.68-35.02-2.52-9.35-3.34-12.46,3.1-21,5.62-7.45,12.12-13.48,19.22-19.52,8.7-7.4,17.67-13.99,28.2-18.56l13.92-5.03,1.35-.47c.18-.06-.12-.67-.3-.72l-.94-.29c-8.01-4.4-16.53-6.84-25.65-7.49l-9.72-1.03c-2.55-.27-4.49-2.88-3.5-5.3l5.04-12.27c2.89-9.43,5.84-18.78,6.9-28.64l2.84-26.55-.94-.8-39.93,29.89-4.79,2.6c-.84.45-3.14-.15-3.71-.89-.51-.66-1.1-2.26-1.1-3.24l.04-17.32c.02-10.39-.96-20.35-2.62-30.61l-4.23-26.05-16.21,26.14-19.38,34.47c-.73.59-2.89.93-3.68.63s-1.57-1.97-1.45-2.98c.86-6.96-.53-13.22-2.13-19.8-3.06-12.54-9.98-22.55-19.99-30.51-6.27-4.98-12.52-9.59-20.02-11.65l1,23.69,1.22,27,.46,23.8c.14,7.3-1.19,14.35-4.54,20.87l-2.85,3.66c-2.7,4.5-6.8,7.55-11.9,8.56l-19.96,3.96c-8.99,1.78-17.78,2.9-26.4,6.21-23.8,9.15-41.61,24.25-56.96,44.27-1.77,2.31-4.14,2.17-6.56,1.24-15.28-5.88-34.28,5.01-45.87,16.79l11.28,2c5.18.92,15.87,7.31,12.29,10.6-2.56,2.36-4.72-2.17-9.43-4.2-8.78-3.78-22.01-4.64-30.49-.31-8.61,4.39-15.72,11-21.4,19.19l8.92,1.13c7.45.94,14.4,3.57,20.08,8.34.66.55.19,3.08-.54,3.47-.72.39-2.23.34-3.15-.16l-7.93-4.32c-7.06-2.75-14.31-3.09-21.82-3.24-8.28-.17-16.16,0-24.16,1.84-6.4,1.48-11.08,5.66-13.09,12.04-3.21,10.14-3.87,20.68-2.22,32.03,7.87-8.58,16.25-15.44,27.07-20.3ZM775.96,453.54l1.86-9.34.68-15.75c.05-1.05,1.36-2.1,2.31-2.15.91-.04,2.65,1.22,2.63,2.35l-.31,13.67-2.16,11.85c-.23,1.29-1.71,2.37-2.71,2.31-1.12-.07-2.55-1.69-2.3-2.93ZM766.38,518.53c3.92-2.36,7.27,7.27,6.18,15.49-.89,6.74-3.06,19.15-7.38,17.22-1.74-.78-1.53-2.42-.9-4.1,1.69-4.49,2.6-9.2,3.32-13.98,1.27-8.5-4.5-12.66-1.22-14.63ZM732.11,545.65l8.39-21.21c3.58-9.06,4.44-18.71,3.68-28.39l-2.56-17.33c-1.17-7.89-1.07-15.49,1.41-23.15,3.53-10.92,9.24-20.84,16.65-29.53.84-.99,2.92-1.04,3.55-.38.8.83,1.09,2.54.26,3.57-6.29,7.74-11.37,16.06-14.81,25.41-3.02,8.18-3.59,16.38-1.79,24.88l2.41,16.87c1.01,12.36-1.48,24.3-6.17,35.69l-6.33,15.35c-.5,1.22-2.37,1.84-3.21,1.56-1.09-.37-1.95-2.1-1.46-3.34ZM705.58,388.33c10.74,2.8,13.99,14.49,10.06,15.31-1.65.35-3.01-.5-3.32-2.13-2.05-10.82-17.67-10.5-28.05-7.58-1.05.3-2.68-1.03-2.88-1.94-1.01-4.7,15.06-6.04,24.19-3.66ZM657.81,403.53c16.08.26,35.14,4.62,40.27,20.97.34,1.09-.54,2.66-1.38,3-4.59,1.86-2.47-8.52-15.84-14.47-10.17-4.52-24.98-5.82-35.9-2.86-1.12.3-2.62-.48-3.14-1.56-1.86-3.84,9.1-5.19,15.98-5.08ZM626.78,431.08c13.58-2.32,25.89-2.84,38.48,3.22,8.66,4.17,14.03,14.55,9.95,15.95-3.48,1.2-4.03-6.3-9.49-9.77-12.44-7.92-29.66-6.86-43.74-2.97-4.32,1.19-7.35,4.95-9.55,2.9-3.8-3.55,6.83-8.05,14.36-9.33Z"/><path class="e" d="M442.42,520.81c22.25-6.42,43.22,5.22,56.66,23.32,13.65.64,26.95,2.94,39.61,7.68l-1.91-18.4c-1.36-13.1,1.39-25.8,8.24-36.83,3.72-5.99,8.23-10.86,13.08-16.16l-11.87,1.51c-10.53.75-21.13-2.14-29.3-8.78-7.94-6.45-11.22-16.54-22.66-25.28l-7.39-5.65c-16.65,5.67-30.47,16.7-39.62,32.49,5.23-.35,9.5,2.31,11.17,6.88,1.69,4.64-.29,9.8-4.19,12.2-4.41,2.71-9.68,1.97-13.68-1.92-1.69,8.08-2.61,16.57.19,24.31l1.68,4.64Z"/><path class="e" d="M437.85,543.48c-1.22-.47-2.18-1.93-1.91-2.95.39-1.46,1.8-2.25,3.44-1.89l19.03,7.24,1.91,1.19c10.59-1.99,20.99-3.04,32.14-3.05-5.79-7.19-12.82-12.88-21.29-16.48-18-7.66-36.84-2.54-47.03,14.17-3.82,6.26-5.95,13.22-6.63,20.49,11.27-6.34,22.26-10.17,34.27-13.35l-13.93-5.37Z"/><path class="e" d="M594.03,641.53c22.27,0,40.33-18.05,40.33-40.32s-18.06-40.32-40.33-40.32-40.33,18.05-40.33,40.32,18.06,40.32,40.33,40.32ZM582.5,580.62c.28-1,2.32-2.07,3.44-1.43l22.23,12.74c1.13.65,1.54,2.39,1.24,3.31-.32.98-2.26,1.89-3.41,1.23l-22.41-12.82c-.94-.54-1.34-2.13-1.09-3.04ZM571.22,590.79c.67-1.01,2.31-1.54,3.53-.81l33.66,19.96c1.51.9,1.9,2.74,1.1,3.75-.7.9-2.32,1.4-3.56.66l-33.85-20.1c-1.15-.68-1.42-2.64-.88-3.45Z"/><path class="e" d="M674.59,593.8l-35.64,1.21c1.14,6.18.3,11.85-.93,17.9,15.07.78,28.44-6.52,36.58-19.11Z"/><path class="b" d="M310.06,873.84c.08,0,.15-.02.23-.03.66-.14,1.33-.24,1.99-.34-.14.02-.28.05-.43.06-1.89.13-3.79.55-5.6,1.1.03.03.06.06.09.1,1.29-.42,2.56-.75,3.72-.89Z"/><path class="g" d="M777.57,582.82c-12.1-6.38-26.28-5.67-37.22,2.64-6.38,4.85-10.67,11.31-15.18,17.81-.83,1.19-2.59,1.66-3.48,1.03-1.23-.88-1.46-2.34-.81-3.68l6.04-8.73-46.22,1.69c-9.02,16.31-25.92,25.76-44.36,24.35-4.91,11.86-14.21,21.19-26.36,25.77,1.19,11.57,6.34,22.08,14.72,30.25l6.57,6.27c11.94,10.37,23.5,20.7,34.15,32.46l12.89,15.71,20.64,27.69c4.41,5.91,8.09,11.8,11.08,18.52,12.56,28.26,19.76,58.29,20.24,89.33.28,18.12-1.46,35.59-6.89,52.92,4.62,1.96,9.67,1.36,13.92-.89,10.81-5.7,18.65-15.73,17.16-28.08l-1.47-12.2c-.91-7.53-.21-21.24,4.86-19.36.81.3,1.65,1.96,1.35,2.99-1.59,5.47-1.88,10.73-1.15,16.36l1.59,12.24c6.09,2.83,14.98-.84,20.06-5.47,5.7-5.2,10.04-11.44,12.11-18.94l2.26-11.49c1.05-11.9-.3-23.69-3.57-35.16-1.81-6.34-4.43-11.99-8.18-17.51-3.17-4.66-7.21-7.5-12.31-9.44-.78-.3-1.35-2.28-1.12-3.06,1.24-4.12,11.91,1.26,17.8,9.9,9.33,13.69,12.4,31.24,12.94,47.59l6.74-5.54c7.37-7.2,13.02-15.87,16.66-25.53,3.85-10.2,4.73-20.42,4.98-31.33.41-18.61-3.6-36.87-13.61-52.64-5.55-8.74-18.81-18.48-28.84-19.49,1.63,11.02.78,24.5-6.81,31.73-6.81,6.48-17.46,7.91-25.95,4.08-3.92-1.77-6.85-4.77-9.35-7.97l-3.48-4.45c-.56-.72.22-2.71,1.03-3.28.64-.45,2.39-.24,2.97.44l5.45,6.38c6.81,7.97,19.21,7.24,25.53,1.41,3.58-3.3,5.12-8.22,5.82-13,1.87-12.72-4.71-25.69,1.92-38.87l6.45-12.83,7.66-14.84c5.94-11.51,10.46-22.94,9.73-36.1-.92-16.55-14.58-32.12-28.96-39.7ZM770.92,621.23c-6.65.96-13.31,3.54-18.39,7.9-2.97,2.55-4.6,6.57-5.65,10.31.71,2.19,3.12,3.56,5.15,4.5,12.3,5.75,18.86,11.37,19.86,26.2.57,8.45-1.88,15.96-7.49,21.84-.59.62-2.82.5-3.43-.07-.68-.63-.9-2.59-.13-3.44,4.36-4.79,6.27-10.58,6.02-17.05-.52-13.62-6.19-17.77-17.22-23.02-5.38-2.56-9.33-6.61-7.21-12.1,1.53-3.95,3.54-8.44,7.01-11.28,5.92-4.85,13.42-7.89,21.02-8.88,6.14-.8,12.07.22,17.99,1.51,1.22.26,2.28,1.71,2.27,2.61-.08,5.24-8.99-.6-19.8.96Z"/><path class="g" d="M521.58,625.47c10.2-3.89,19.21-9.01,27.79-15.77-2.28-13.29.85-26.65,9.56-37.29-9.62-13.34-29.31-19.66-45.63-21.85-25.72-3.46-51.78-.66-76.16,8.19-15.42,5.6-33.07,15.56-40.78,29.98-4.69,8.78-3.52,18.51,2.91,26.03,10.21,11.95,28.63,17.5,44.63,19.84,26.53,3.29,52.98.3,77.68-9.13Z"/><path class="e" d="M553.94,525.77c-4.43,1.37-8.31.09-12.15-3.36l.14,11.66,2.65,20.45c6.98,3.32,12.77,7.79,17.92,13.95,12.62-11.7,29.58-15.75,46.3-10.18,13.83,4.6,25.42,16.67,29.34,31.73l39.81-1.54c14.6-29.94,7.49-67.66-8.59-95.54l-21.77-2.77c-8.72-1.11-17.24-.52-25.94.51-7.12.84-13.81,1.04-20.88.66l-12.28-.66c-8.54-.46-16.33-4.29-23.13-9.59l-7.67,7.28c-4.22,4.84-8.03,9.73-10.95,15.43,4.24-1.1,8.3-.19,11.45,2.64,2.7,2.43,4.31,6.52,3.58,10.36-.86,4.57-4.02,7.79-7.83,8.97Z"/><path class="e" d="M569.65,747.68c6.66-2.09,12.82-6.26,17.48-11.31,1.54-1.67,2.87-4.18,5.53-2.16,6.83,5.17,15.2,7.66,23.45,4.55,4.88-1.84,8.49-5.42,9.73-10.77-10.83-6.7-25.8-7.8-38.29-6.03l-27.6,3.91c-18.61,1.75-36.87.92-55.42-.95-5.06-.51-9.67-2.06-14.39-3.44l-7.46,1.14-25.6,1.91c-5.22.39-10.04.43-15.41-.2,1.69,7.82,6.67,13.98,13.68,17.68,8.21,4.33,18.15,2.13,24.97-3.96,2.07-1.84,4.92-1.74,6.5.47,9.25,12.96,26.89,15.85,40.31,9.07l10.69-6.6c2.2-1.36,4.59-1.1,6.27.86,5.1,5.97,19.25,7.79,25.54,5.81Z"/><path class="d" d="M607.54,948.27c-12.31-1.63-25-7.5-33.43-16.91l-6.23-6.69-3.4,3.89-12.2,19.4c-7.75,12.32-15.2,23.99-11.76,39.32,2.48,11.04,19.06,6.11,28.82.93,1.86-.56,3.06-1.44,4.28-2.66,5.62-5.61,11.87-10.13,18.28-14.69,2.71-9.08,7.92-16.71,15.64-22.58Z"/><path class="e" d="M655.8,964.74c-10.08-9.14-26.72-19.68-40.01-15.3-11.78,5.36-19.28,17.36-20.15,30-1.13,16.36,10.42,29.97,26.71,31.01,21.8,1.39,41.09-18.9,37.6-40.65l-4.15-5.06Z"/><path class="d" d="M834.91,813.73c-1.63-1.19-3.44-2.02-5.66-2.44-4.4,12.4-10.83,24.05-20.89,32.52l-9.14,7.7c-1.39,13.78-5.27,24.27-15.05,33.88-6.31,5.83-16.03,10.23-24.7,8.04-.91,10.44-6.99,18.9-15.55,24.58-6.57,4.36-14.89,7.11-22.16,3.48-9.54,26.49-29.56,48.85-59.99,42.14,1.25,1.91,3.22,3.86,3.5,5.84.64,4.52.2,8.7-.52,13.26,3.14,5.78,6.83,10.98,11.15,16.01,8.04,9.38,17.07,10.4,28.76,9.52,9.53-.72,18.06-3.29,26.38-7.92,14.51-8.07,27.77-17.47,40.38-28.39,17.42-15.09,33.19-31.63,47.52-49.68,9.91-12.48,17.96-25.75,24.51-40.2,10.48-23.13,13.58-52.12-8.53-68.31Z"/><path class="c" d="M660.53,875.95l12.34,1.78c2.36.34,4.16-1.01,5.77-2.04,3.28-2.08,5.48-4.83,6.13-8.8,1.02-6.23,1.96-12.33,2.07-18.72.04-2.65-1.04-5.54-2.92-7.36l-19.87-.1c-4.59.62-8.46,2.91-11.52,6.29-3.68,4.07-6.9,8.7-8.2,14.23-.95,4.04,1.47,9.03,5.14,11.01,3.42,1.84,7.27,3.14,11.06,3.69Z"/><path class="f" d="M576.42,831.39c.49,7.4.52,14.59-.58,21.63l10.72,3.3c2.09-14.73,2.31-28.46,1.44-42.8-1.05-15.08-5.04-29.35-11.5-42.89l-7.28-13.67-1.85-3.48c-7.66.3-15.37-.91-22.71-4.13l12.73,13.88c7.76,10.21,12.5,21.86,14.91,34.5,2.14,11.27,3.38,22.19,4.14,33.67Z"/><path class="f" d="M567.89,907.43l1.03,8.56c2.95,1.08,1.43,4.27,4.27,7.1l9.24,9.17c6.37,5.25,14.27,8.95,22.49,10.39l13.13,1.08,7.14-.4,1.6-.06c.21,0-.34-.84-.45-1.06l-3.9-7.85c-.61-1.23.07-3.28,1.09-3.61,4.91-1.6,5.76,10.97,11.9,14.59l17.94,10.57,6.01,1.62c13.29,4.71,27.3,2.01,37.95-7.27,18.43-16.05,25.79-44.72,27.41-68.81,2.51-37.41-5.02-74.73-21.21-108.48-2.43-5.06-5.38-9.37-8.67-13.8l-14.75-19.89-18.78-23.51-17.79-17.81-17.29-15.33-7.42-7.4c-7.69-8.35-12.4-18.61-13.77-29.96-23.64,5.68-46.65-7.25-54.36-30.08-9.79,7.26-19.31,12.22-29.98,16.07-21.65,7.78-44.41,10.75-67.39,9.4-11.13-.84-21.7-2.69-31.74-6.15l-4.03,13.33c-2.09,6.9-16.53,8.24-24.63,8.05l-29.57-.71c-8.84-.21-17.2.09-25.67,2.33-5.02,1.33-9.08,4.7-10.63,9.84-2.29,7.57-3.33,16.1-.58,23.74,1.88,5.22,7.52,8.34,12.74,9.51,5.37,1.2,11.02.36,16.21-.7.56-1.04,1.71-2.19,2.53-2.08,1.07.14,1.81,1,2.62,1.93,6.54,7.49,15.22,12.5,24.9,15.24,11.12,3.15,22.34,4.29,33.88,4.53l8.83.19-7.57-4.76c-3.34-2.1-8.28-8.98-5.69-11.02.6-.48,2.56-.68,3.13-.16l4.8,4.47c4.17,3.88,9.12,7.11,14.39,9.43,5.9,2.6,12.45,2.3,18.77,1.83l25.14-1.87c-3.85-2.84-7.19-4.88-10.21-8.12-.6-.64-.15-3,.55-3.51.7-.51,2.67-.64,3.44.06,8.97,8.06,19.77,13.09,31.83,14.04l15.54,1.22c13.41,1.06,26.59,1.16,39.89-.75l26.3-3.78c10.65-1.53,21.21-.56,31.37,2.74l10.64,5.11c1.66.8,2.96,1.62,4.3,2.85l8.25,7.61,14.45,15,8.33,10.07c4.22,5.1,8.41,10.08,11.43,16.06,4.37,8.65,7.31,17.56,10.5,26.71,3.6,10.34,5.63,20.45,6.44,31.38.74,9.93,2.11,19.9-.99,29.51l-6.13,18.98c-1.21,3.74-3.44,6.48-6.53,8.58-10.46,7.09-18.95,9.98-31.93,9.97h-6.74c-4.72-.01-9.35-1.43-13.09-4.36l-12.88-10.09-12.65-12.23-10.61-6.74-4.9-2.78c-7.84-4.44-15.79-7.6-25.07-7.49-8.92.11-17.97,2.38-26,6.38-3.35,1.67-6.65,3.65-8.91,6.26-5.67,6.52-4.17,15.43,2.77,20.07,2.77,1.85,5.73,3.66,9.15,4.07l15.46,1.86c7.16.86,11.77,3.44,12.69,11.11ZM501.12,658.16l-3.75,7.2c-4.01,7.7-3.27,11.81-6.92,11.27-3.24-.48-.9-7.76,1.55-12.06l4.81-8.46c.37-.64,2.07-1.06,2.78-.91.81.17,1.94,2.19,1.54,2.95ZM659.82,936.51c1.11-.95,3.02-.76,3.9.49,8.49,12.03,16.84,10.21,15.97,14.26-1.61,7.53-24.59-10.7-19.87-14.75Z"/><path d="M679.69,951.26c.87-4.05-7.47-2.23-15.97-14.26-.88-1.25-2.79-1.44-3.9-.49-4.72,4.05,18.26,22.28,19.87,14.75Z"/><path d="M499.57,655.2c-.71-.15-2.42.26-2.78.91l-4.81,8.46c-2.45,4.3-4.78,11.59-1.55,12.06,3.65.54,2.91-3.57,6.92-11.27l3.75-7.2c.4-.76-.74-2.78-1.54-2.95Z"/><path d="M788.45,617.66c-5.92-1.28-11.86-2.31-17.99-1.51-7.59,1-15.09,4.03-21.02,8.88-3.47,2.84-5.48,7.33-7.01,11.28-2.12,5.5,1.83,9.54,7.21,12.1,11.03,5.24,16.7,9.4,17.22,23.02.25,6.48-1.67,12.26-6.02,17.05-.77.85-.55,2.81.13,3.44.61.57,2.84.69,3.43.07,5.61-5.88,8.06-13.39,7.49-21.84-1-14.83-7.56-20.44-19.86-26.2-2.03-.95-4.44-2.32-5.15-4.5,1.05-3.74,2.68-7.76,5.65-10.31,5.08-4.36,11.74-6.95,18.39-7.9,10.82-1.56,19.72,4.29,19.8-.96.01-.9-1.05-2.35-2.27-2.61Z"/><path d="M572.1,594.24l33.85,20.1c1.24.74,2.86.24,3.56-.66.79-1.01.41-2.85-1.1-3.75l-33.66-19.96c-1.22-.72-2.86-.19-3.53.81-.54.82-.27,2.77.88,3.45Z"/><path d="M1001.99,982.32c-8.04-13.21-16.84-25.51-27.91-36.23l-8.82-8.55-8.19-7.61-8.9-8.4-6.4-5.91c-10-9.23-19.93-17.92-30.91-26.07-8.39-6.23-16.55-12-25.74-17.02l-27.56-12.7c-.97-.45-1.94-.72-1.76-1.94,1.6-10.87.74-21.71-3.91-31.58-3.92-8.33-11.75-17.6-21.36-19.99,4.73-25.05,3.63-50.13-8.29-73.59-3.07-6.04-6.67-11.37-11.86-15.72-6.47-5.41-15.52-11.58-23.67-12.08l-1.6-.1c-.92-.06-.9-10.34,2.34-16.8l5.26-10.51,7.15-13.82,7.97-17.5c3.1-8.54,4.67-17.38,3.53-26.49-1.23-9.79-5.64-18.69-12.22-25.86l-3.95-4.31c-2.46-10.88,1.18-26.88,5.52-37.55,3.88-9.54,7.54-18.76,9.75-28.89,2.48-11.35,3.94-22.48,3.97-34.14l.11-46.14-.29-8.22c-.35-9.87-.87-19.48-3.05-29.08l-3.58-15.82c-.45-2.01,1.53-5.11,2.72-6.79,5.68-8.05,12.54-14.41,20-20.77,8.03-6.85,16.36-12.81,26-17.23l9.35-3.5c4.18-1.57,8.45-2.64,12.89-3.41.81-.14,1.93-1.62,1.72-2.33-1.04-3.43-3.43-4.27-6.78-5.71l-14.57-6.28c-6.91-2.12-13.92-2.62-21.14-3.35l-1.98-.2c-.28-.03-.13-1,.01-1.27,6.52-12.54,11.81-37.26,12.74-51.63l1.38-21.11c.07-1.06-1.08-2.52-1.91-2.55-1.06-.04-2.47.4-3.31,1.04l-14.82,11.27-28.9,21.44-1.34.51c-.18.07-.06-.86-.06-1.05l-.04-12.77c-.04-14.22-2.01-27.76-4.13-41.79l-3.49-23.09c-.22-1.48-1.64-2.95-2.98-2.93-1.23.02-2.43,1.1-3.14,2.29l-7.88,13.06-16.53,27.74-8.81,15.72c-.14.25-.5-.04-.55-.34l-.16-1.05-3.53-14.89c-3.57-11.57-10.56-21.01-19.95-28.51-5.19-4.14-10.08-8.14-16.29-10.69l-9.57-3.92c-.97-.4-2.99.28-3.49,1.09-.99,1.6,1.06,5.79,1.31,12.67l1.57,44.42.55,16.34c.2,5.89-.18,11.71-1.29,17.4-.78,3.99-2.67,7.18-4.92,10.39-2.08,2.97-4.64,5.38-8.33,6.54-14.15,4.44-29.91,4.27-45.66,9.86-25.25,8.97-45.25,25.37-61.29,46.62-16.95-6.57-34.53,2.46-47.71,13.37-2.83,2.34-5.21,4.84-6.46,8.21-12.14.26-21.91,7.9-30.19,16.29-3.16,3.21-5.67,6.69-7.48,10.9-8.96-.35-17.52.04-26.03,2.43-7.23,2.03-12.4,7.13-14.81,14.36-4.26,12.79-4.52,26.45-1.68,39.61-11.02,15.88-16.8,38.04-9.04,56.62-16.38,8.1-24.46,24.44-25.62,42.84-6.77,4.53-12.59,9.58-17.22,16.07-9.62,13.5-8.27,28.45,3.84,39.85,5.18,4.74,11.05,8.2,17.55,10.98.2.04,1.26.29,1.13.51l-.73,1.23-2.75,9.22c-.78,2.63-2.1,4.69-4.84,5.49-4.16,1.21-8.55,1.84-13.02,1.84l-19.86-.04-12.23-.58c-9.83-.47-19.31.07-28.68,2.88-5.23,1.57-9.6,5.06-11.83,10.02-3.95,8.8-5.12,24.76-.55,32.21,7.26,11.83,22.27,12.57,35.19,9.38,16.25,16.78,39.48,19.09,61.9,20l16.09.34.97-.49c.16-.08.06.77,0,1.07,1.31,7.52,5.66,14.01,11.88,18.31,9.19,7.98,25.03,6.8,33.4-.82l1.08-.73c.21-.14.61.78.73,1.07,6.22,7.65,15.53,12.18,25.45,12.74,9.72.41,18.77-2.02,26.38-7.92.37-.15,1.09-.35,1.17-.09l.43,1.37,11.13,11.31c9.28,9.97,15.35,21.92,18.14,35.35,2.44,11.75,3.76,23.26,4.56,35.26.52,7.2.5,13.83-.48,20.94l-1.47.86c-7.65-1.4-14.7-.26-22.19,1.61-8.41,2.26-16.97,5.68-22.91,11.95-6.59,6.97-6.71,16.96-.73,24.03,4.1,4.85,9.76,8.14,16.1,8.87l16.32,1.86c3.74.42,6.3,2.42,6.79,6.08l1.21,9.23c.3.43.64,1.1.35,1.15l-1.55.27-7.91.75h-43.78c-13.18,0-25.67-1.47-38.72-2.99-13.19-1.54-25.54-3.89-38.44-6.9-16.08-3.75-31.29-8.37-46.55-14.58-8.02-3.26-16.13-5.3-24.57-7.03l-9.27-.95c-2.05-3.38-5.42-5.23-9.16-6.65-10.29-3.92-21.06-7.82-31.78-6.42-.1.02-.22.03-.33.04-.66.09-1.33.2-1.99.34-.08,0-.15.02-.23.03-1.16.14-2.43.47-3.72.89-.03-.03-.06-.06-.09-.1-.1.03-.21.07-.31.1.07.07.15.15.22.22-1.97.72-3.82,1.61-5.44,2.52.11-.08-.04-.3-.24-.52l-1.03.52c-.89.52-2.03,1.19-3.31,1.97,0,0-.03.02-.03.02h0c-10.26,6.24-30.7,19.92-25.82,25.39.51.57,2.69.67,3.12.02,2.19-3.29,4.39-6.24,7.55-8.74,6.64-5.26,13.55-9.94,20.89-14.17,5.56-3.2,11.35-4.52,17.75-3.78,6.38.73,12.27,2.34,18.28,4.65l7.51,2.9c.21.08.86.6,1,.73.12.12.1.35-.08.39l-1.06.21-.83.17-1.16.08-8.31,2.11-.77.28-.78.35-7.67,3.39-.73.42-.63.4-.65.41c-9.93,4.88-18.34,11.87-25.48,20.3l-.27.79c-.4,1.17.29,2.52,1.26,3.05.52.28,1.86,0,2.62-.26,8.49-10.28,19.19-17.72,31.44-23.02,10.3-4.28,21.15-4.99,32-2.43,8.49,2.01,16.34,4.41,24.44,7.69,15.06,6.09,30.3,10.25,46.15,13.92,27.21,6.31,56.95,9.46,84.87,9.4l32.61-.07,7.12-.33c.28-.01,1.24-.06,1.11.11l-.6.81-2.76,3.74-.41.68-.37.63-.38.65-.38.66-.39.59-.4.62-.4.62-.41.61-.41.61-.43.65-.34.57-.39.67-.38.65-.37.63-.37.64-.38.65-.38.66-.38.65-.37.64-.37.63-.38.64-.38.64-.38.63-.38.63-.39.64-.4.65-.38.6-.41.63-.4.61-.4.62-.4.62-.4.62-.4.61-.4.61-.43.65-.35.56-.39.67-.38.65-.38.64-.38.62-.31.67-.33.71c-6.83,11.29-9.76,24.88-5.23,37.26l.65.65.41.55.45.6.43.58.46.59.57.51c4.56,4.11,10.95,3.62,16.84,2.38l.85-.18.84-.18.84-.18.88-.19.69-.19.84-.26.78-.24.89-.28s.3.24.43.34l-.55.7-.45.58-.46.59c-4.35,5.52-7.4,11.62-9.74,18.25l-.26.74-.27.73-.29.8-.21.72-.24.83-.23.8-.22.78-.22.74-.25.84,5.04.07,1.66-4.58,3.35-8.28.35-.74,4.37-7.24.65-.54c6.79-9.72,15.23-17.87,24.85-24.42-.8,11.08,2.84,20.92,10.51,28.52-3.47,4.52-6.19,9.1-8.43,14.2l-.31.79-.68,2.03c-.12.36,1.59.18,1.97.19l1.06.04,1.34.06c.89.04,1.6-1.56,2.09-2.68,1.78-4.11,4.05-7.6,6.99-11.41,6.69,4.2,13.98,5.96,21.75,5.85l1.99,7c.12.41.91,1.21,1.31,1.21h1.15s1.18,0,1.18,0c.54,0,2.06-.16,1.91-.62l-.6-1.85-.26-.81-1.36-4.32-.34-1.09c-.05.05.6-.53.73-.65l1.07-.1.81-.21c4.69-1.21,8.82-3.33,12.87-5.96l.67-.43.56-.42c3.67-2.73,7.11-5.91,9.47-9.85l3.85-6.43c.2-.53.71-1.66.95-1.33l1.19,1.66,7.77,10.23c.82,1.08,2.13,2.46,2.31,3.74l1.04,7.65.52,10.59,4.45.15,1.01-.14-.65-12.29c-.04-.68-.05-2.39.03-2.18,4.45,2.36,8.3,4.02,12.91,4.04l9.32.06c12.07-.54,23-4,33.4-10.05,17.36-10.09,33.09-21.99,47.73-35.73l18.87-18.86c17.85-19.1,31.19-35.8,42.92-59.47,3.76-7.59,6.75-15.11,8.64-23.43.11-.5.7-1.66,1.16-1.47l10.04,4.23c28.23,11.9,50.7,30.33,72.93,50.81l6.15,5.66,9.16,8.63,7.15,6.66c12.11,11.28,23.01,23.22,32.05,37.18,9.24,14.27,17.25,28.8,24.62,44.1.71,1.48,1.27,2.36,2.78,2.3l3.66-.14-.29-1.18-21.73-40.36ZM806.53,622.52c.73,13.15-3.79,24.59-9.73,36.1l-7.66,14.84-6.45,12.83c-6.63,13.18-.05,26.15-1.92,38.87-.7,4.78-2.25,9.7-5.82,13-6.32,5.84-18.72,6.56-25.53-1.41l-5.45-6.38c-.58-.68-2.33-.89-2.97-.44-.81.57-1.59,2.56-1.03,3.28l3.48,4.45c2.5,3.19,5.43,6.2,9.35,7.97,8.49,3.83,19.14,2.4,25.95-4.08,7.6-7.23,8.45-20.71,6.81-31.73,10.02,1.02,23.29,10.76,28.84,19.49,10.02,15.77,14.03,34.04,13.61,52.64-.24,10.91-1.13,21.13-4.98,31.33-3.64,9.66-9.29,18.33-16.66,25.53l-6.74,5.54c-.54-16.35-3.61-33.89-12.94-47.59-5.89-8.64-16.56-14.01-17.8-9.9-.24.79.34,2.77,1.12,3.06,5.1,1.94,9.14,4.78,12.31,9.44,3.75,5.52,6.37,11.17,8.18,17.51,3.28,11.47,4.62,23.26,3.57,35.16l-2.26,11.49c-2.08,7.51-6.41,13.74-12.11,18.94-5.07,4.63-13.96,8.3-20.06,5.47l-1.59-12.24c-.73-5.63-.44-10.89,1.15-16.36.3-1.03-.54-2.69-1.35-2.99-5.07-1.89-5.76,11.83-4.86,19.36l1.47,12.2c1.49,12.35-6.34,22.38-17.16,28.08-4.25,2.24-9.31,2.84-13.92.89,5.43-17.33,7.17-34.8,6.89-52.92-.49-31.04-7.68-61.07-20.24-89.33-2.99-6.73-6.67-12.61-11.08-18.52l-20.64-27.69-12.89-15.71c-10.65-11.77-22.21-22.09-34.15-32.46l-6.57-6.27c-8.38-8.17-13.53-18.68-14.72-30.25,12.15-4.58,21.44-13.91,26.36-25.77,18.44,1.4,35.34-8.05,44.36-24.35l46.22-1.69-6.04,8.73c-.65,1.34-.43,2.8.81,3.68.89.63,2.65.16,3.48-1.03,4.52-6.5,8.8-12.96,15.18-17.81,10.94-8.31,25.11-9.02,37.22-2.64,14.38,7.58,28.05,23.15,28.96,39.7ZM558.19,506.43c-3.15-2.83-7.21-3.74-11.45-2.64,2.92-5.7,6.74-10.59,10.95-15.43l7.67-7.28c6.8,5.3,14.58,9.13,23.13,9.59l12.28.66c7.08.38,13.76.18,20.88-.66,8.7-1.03,17.22-1.62,25.94-.51l21.77,2.77c16.08,27.88,23.19,65.61,8.59,95.54l-39.81,1.54c-3.91-15.06-15.5-27.13-29.34-31.73-16.72-5.56-33.68-1.51-46.3,10.18-5.15-6.16-10.94-10.63-17.92-13.95l-2.65-20.45-.14-11.66c3.84,3.45,7.72,4.73,12.15,3.36,3.81-1.18,6.97-4.41,7.83-8.97.72-3.84-.88-7.94-3.58-10.36ZM638.94,595.02l35.64-1.21c-8.14,12.59-21.5,19.89-36.58,19.11,1.23-6.05,2.07-11.72.93-17.9ZM594.03,560.89c22.27,0,40.33,18.05,40.33,40.32s-18.06,40.32-40.33,40.32-40.33-18.05-40.33-40.32,18.06-40.32,40.33-40.32ZM452.97,428.56c2.02-6.38,6.69-10.56,13.09-12.04,8.01-1.85,15.88-2.01,24.16-1.84,7.51.15,14.77.49,21.82,3.24l7.93,4.32c.92.5,2.43.54,3.15.16.72-.39,1.19-2.92.54-3.47-5.69-4.78-12.64-7.4-20.08-8.34l-8.92-1.13c5.68-8.19,12.79-14.8,21.4-19.19,8.48-4.33,21.7-3.48,30.49.31,4.72,2.03,6.87,6.56,9.43,4.2,3.58-3.29-7.11-9.68-12.29-10.6l-11.28-2c11.59-11.78,30.59-22.66,45.87-16.79,2.42.93,4.78,1.07,6.56-1.24,15.35-20.03,33.16-35.12,56.96-44.27,8.62-3.32,17.41-4.43,26.4-6.21l19.96-3.96c5.11-1.01,9.2-4.07,11.9-8.56l2.85-3.66c3.35-6.52,4.68-13.57,4.54-20.87l-.46-23.8-1.22-27-1-23.69c7.5,2.06,13.76,6.67,20.02,11.65,10.01,7.96,16.93,17.97,19.99,30.51,1.6,6.57,2.99,12.84,2.13,19.8-.12,1,.66,2.68,1.45,2.98s2.95-.04,3.68-.63l19.38-34.47,16.21-26.14,4.23,26.05c1.67,10.26,2.65,20.22,2.62,30.61l-.04,17.32c0,.98.59,2.58,1.1,3.24.57.74,2.87,1.35,3.71.89l4.79-2.6,39.93-29.89.94.8-2.84,26.55c-1.06,9.86-4.01,19.21-6.9,28.64l-5.04,12.27c-1,2.42.95,5.03,3.5,5.3l9.72,1.03c9.12.65,17.64,3.09,25.65,7.49l.94.29c.18.06.48.66.3.72l-1.35.47-13.92,5.03c-10.54,4.57-19.5,11.17-28.2,18.56-7.1,6.03-13.6,12.07-19.22,19.52-6.44,8.54-5.63,11.65-3.1,21,3.12,11.55,4.8,23,4.68,35.02l.32,7.23-.11,47.54c-.03,11.36-1.42,22.25-3.89,33.29-2.03,9.07-5.15,17.39-8.68,25.95-4.78,11.6-7.58,23.61-7.57,36.22-12.66-9.92-26.96-13.95-42.33-8.26-6.05,2.24-10.88,5.53-15.1,10.5l-48.1,1.75c13.24-29.99,7.15-65.41-7.71-94.06,6.64,1.09,12.43,3.3,17.89,6.64l6.03,3.7,5.28,2.99c1.19.67,3.04.34,3.74-.74.71-1.09.22-2.92-1-3.59l-4.02-2.2c-6.82-3.73-13.12-8.15-20.66-10.37-8.66-2.54-17.35-3.03-26.22-4.46-11.75-1.9-22.97-2.44-34.87-.77-5.4.76-10.87,1.15-16.26.94l-13.25-.52c-8.5-.34-16.91-3.02-23.45-8.47-2.97-2.48-4.12-6.38-5.35-9.88-2.66-7.61-3.71-15.05-3.44-23.09.04-1.09-1.79-2.4-2.65-2.26-1.05.17-2.31,1.32-2.36,2.59-.25,6.81.15,13.29,2.25,19.69l3.41,10.35-15.28,2c-9.77,1.28-19.59-2.15-26.83-8.75-2.85-2.6-5.22-5.78-7.32-8.96-4.07-6.15-8.92-10.9-14.51-15.59-4.16-3.49-7.98-6.57-13.58-7.42l-18.09-2.77c-.88-.14-2.07,1.45-2.15,2.19-.08.83,1.03,2.51,1.96,2.67l12.58,2.1c-10.82,4.86-19.2,11.72-27.07,20.3-1.65-11.34-.99-21.89,2.22-32.03ZM440.56,491.86c3.99,3.88,9.27,4.62,13.68,1.92,3.9-2.4,5.89-7.56,4.19-12.2-1.67-4.57-5.94-7.22-11.17-6.88,9.15-15.79,22.97-26.82,39.62-32.49l7.39,5.65c11.44,8.74,14.71,18.83,22.66,25.28,8.18,6.64,18.77,9.53,29.3,8.78l11.87-1.51c-4.85,5.3-9.36,10.17-13.08,16.16-6.85,11.03-9.6,23.73-8.24,36.83l1.91,18.4c-12.66-4.73-25.96-7.03-39.61-7.68-13.45-18.1-34.41-29.74-56.66-23.32l-1.68-4.64c-2.8-7.74-1.88-16.23-.19-24.31ZM424.13,541.72c10.19-16.71,29.02-21.83,47.03-14.17,8.47,3.6,15.5,9.29,21.29,16.48-11.16,0-21.55,1.06-32.14,3.05l-1.91-1.19-19.03-7.24c-1.65-.36-3.05.43-3.44,1.89-.27,1.01.7,2.48,1.91,2.95l13.93,5.37c-12.01,3.18-23,7.01-34.27,13.35.68-7.27,2.82-14.23,6.63-20.49ZM399.27,614.75c-6.43-7.52-7.6-17.25-2.91-26.03,7.71-14.42,25.36-24.38,40.78-29.98,24.38-8.85,50.43-11.65,76.16-8.19,16.33,2.2,36.02,8.51,45.63,21.85-8.7,10.64-11.84,24-9.56,37.29-8.58,6.76-17.59,11.88-27.79,15.77-24.71,9.43-51.15,12.42-77.68,9.13-16-2.34-34.42-7.9-44.63-19.84ZM537.85,741.01l-10.69,6.6c-13.42,6.77-31.06,3.89-40.31-9.07-1.58-2.22-4.43-2.31-6.5-.47-6.82,6.08-16.76,8.28-24.97,3.96-7.01-3.7-11.99-9.86-13.68-17.68,5.36.62,10.18.59,15.41.2l25.6-1.91,7.46-1.14c4.72,1.38,9.33,2.93,14.39,3.44,18.55,1.87,36.81,2.7,55.42.95l27.6-3.91c12.49-1.77,27.46-.66,38.29,6.03-1.24,5.35-4.85,8.93-9.73,10.77-8.25,3.11-16.62.61-23.45-4.55-2.67-2.02-3.99.49-5.53,2.16-4.65,5.05-10.82,9.22-17.48,11.31-6.29,1.98-20.43.16-25.54-5.81-1.68-1.96-4.07-2.22-6.27-.86ZM557.38,763.23l-12.73-13.88c7.35,3.22,15.06,4.43,22.71,4.13l1.85,3.48,7.28,13.67c6.47,13.54,10.45,27.82,11.5,42.89.87,14.35.66,28.07-1.44,42.8l-10.72-3.3c1.1-7.04,1.07-14.23.58-21.63-.76-11.48-2-22.4-4.14-33.67-2.4-12.64-7.15-24.29-14.91-34.5ZM555.2,896.31l-15.46-1.86c-3.43-.41-6.38-2.22-9.15-4.07-6.94-4.64-8.44-13.55-2.77-20.07,2.26-2.61,5.57-4.59,8.91-6.26,8.03-4,17.08-6.27,26-6.38,9.29-.12,17.23,3.05,25.07,7.49l4.9,2.78,10.61,6.74,12.65,12.23,12.88,10.09c3.74,2.93,8.37,4.35,13.09,4.36h6.74c12.98.02,21.47-2.88,31.93-9.96,3.09-2.09,5.32-4.84,6.53-8.58l6.13-18.98c3.1-9.61,1.73-19.59.99-29.51-.81-10.92-2.83-21.04-6.44-31.38-3.19-9.15-6.13-18.06-10.5-26.71-3.02-5.98-7.21-10.96-11.43-16.06l-8.33-10.07-14.45-15-8.25-7.61c-1.34-1.23-2.64-2.06-4.3-2.85l-10.64-5.11c-10.16-3.3-20.71-4.27-31.37-2.74l-26.3,3.78c-13.3,1.91-26.48,1.81-39.89.75l-15.54-1.22c-12.06-.95-22.86-5.98-31.83-14.04-.77-.69-2.74-.57-3.44-.06-.7.51-1.15,2.87-.55,3.51,3.02,3.24,6.36,5.28,10.21,8.12l-25.14,1.87c-6.33.47-12.88.77-18.77-1.83-5.27-2.32-10.22-5.55-14.39-9.43l-4.8-4.47c-.57-.53-2.52-.32-3.13.16-2.59,2.04,2.35,8.92,5.69,11.02l7.57,4.76-8.83-.19c-11.54-.25-22.76-1.38-33.88-4.53-9.68-2.74-18.37-7.76-24.9-15.24-.81-.93-1.55-1.79-2.62-1.93-.82-.11-1.97,1.04-2.53,2.08-5.19,1.06-10.84,1.9-16.21.7-5.22-1.17-10.86-4.29-12.74-9.51-2.75-7.64-1.71-16.17.58-23.74,1.55-5.13,5.61-8.51,10.63-9.84,8.47-2.24,16.83-2.54,25.67-2.33l29.57.71c8.1.19,22.54-1.15,24.63-8.05l4.03-13.33c10.04,3.45,20.6,5.3,31.74,6.15,22.98,1.35,45.73-1.62,67.39-9.4,10.68-3.86,20.2-8.82,29.98-16.07,7.71,22.83,30.71,35.76,54.36,30.08,1.37,11.35,6.08,21.61,13.77,29.96l7.42,7.4,17.29,15.33,17.79,17.81,18.78,23.51,14.75,19.89c3.28,4.43,6.24,8.74,8.67,13.8,16.19,33.76,23.72,71.08,21.21,108.48-1.62,24.09-8.98,52.76-27.41,68.81-10.66,9.28-24.66,11.98-37.95,7.27l-6.01-1.62-17.94-10.57c-6.14-3.62-6.98-16.19-11.9-14.59-1.03.34-1.71,2.38-1.09,3.61l3.9,7.85c.11.22.66,1.05.45,1.06l-1.6.06-7.14.4-13.13-1.08c-8.21-1.43-16.11-5.14-22.49-10.39l-9.24-9.17c-2.85-2.83-1.32-6.01-4.27-7.1l-1.03-8.56c-.92-7.67-5.53-10.25-12.69-11.11ZM644.33,861.25c1.31-5.53,4.52-10.17,8.2-14.23,3.07-3.39,6.93-5.67,11.52-6.29l19.87.1c1.88,1.82,2.96,4.71,2.92,7.36-.1,6.39-1.04,12.49-2.07,18.72-.65,3.96-2.85,6.72-6.13,8.8-1.62,1.02-3.41,2.38-5.77,2.04l-12.34-1.78c-3.79-.55-7.63-1.85-11.06-3.69-3.68-1.98-6.09-6.97-5.14-11.01ZM573.62,985.54c-1.22,1.22-2.43,2.1-4.28,2.66-9.76,5.18-26.34,10.11-28.82-.93-3.44-15.33,4.02-27,11.76-39.32l12.2-19.4,3.4-3.89,6.23,6.69c8.42,9.42,21.12,15.29,33.43,16.91-7.73,5.88-12.94,13.51-15.64,22.58-6.41,4.56-12.65,9.08-18.28,14.69ZM622.35,1010.44c-16.29-1.04-27.84-14.65-26.71-31.01.87-12.64,8.37-24.64,20.15-30,13.29-4.39,29.93,6.16,40.01,15.3l4.15,5.06c3.49,21.75-15.8,42.04-37.6,40.65ZM843.44,882.04c-6.55,14.46-14.6,27.72-24.51,40.2-14.33,18.05-30.09,34.59-47.52,49.68-12.61,10.92-25.87,20.32-40.38,28.39-8.32,4.63-16.85,7.21-26.38,7.92-11.68.88-20.72-.14-28.76-9.52-4.31-5.03-8-10.23-11.15-16.01.72-4.56,1.16-8.74.52-13.26-.28-1.97-2.25-3.93-3.5-5.84,30.44,6.71,50.45-15.65,59.99-42.14,7.27,3.64,15.59.88,22.16-3.48,8.56-5.68,14.65-14.14,15.55-24.58,8.67,2.2,18.4-2.21,24.7-8.04,9.77-9.61,13.66-20.09,15.05-33.88l9.14-7.7c10.05-8.47,16.49-20.13,20.89-32.52,2.22.42,4.03,1.25,5.66,2.44,22.11,16.19,19.01,45.18,8.53,68.31Z"/><path d="M583.59,583.66l22.41,12.82c1.15.66,3.09-.25,3.41-1.23.3-.92-.11-2.66-1.24-3.31l-22.23-12.74c-1.12-.64-3.17.42-3.44,1.43-.25.9.15,2.5,1.09,3.04Z"/><path d="M733.57,548.99c.84.28,2.71-.34,3.21-1.56l6.33-15.35c4.7-11.38,7.18-23.33,6.17-35.69l-2.41-16.87c-1.8-8.5-1.23-16.7,1.79-24.88,3.45-9.35,8.52-17.66,14.81-25.41.84-1.03.54-2.74-.26-3.57-.64-.66-2.71-.61-3.55.38-7.4,8.69-13.11,18.61-16.65,29.53-2.48,7.67-2.58,15.26-1.41,23.15l2.56,17.33c.77,9.68-.1,19.33-3.68,28.39l-8.39,21.21c-.49,1.24.37,2.97,1.46,3.34Z"/><path d="M621.97,437.51c14.08-3.88,31.3-4.94,43.74,2.97,5.46,3.48,6.01,10.97,9.49,9.77,4.08-1.4-1.29-11.78-9.95-15.95-12.59-6.06-24.89-5.54-38.48-3.22-7.53,1.28-18.16,5.78-14.36,9.33,2.19,2.05,5.23-1.71,9.55-2.9Z"/><path d="M644.97,410.17c10.92-2.96,25.72-1.66,35.9,2.86,13.37,5.94,11.25,16.32,15.84,14.47.84-.34,1.72-1.92,1.38-3-5.13-16.35-24.19-20.71-40.27-20.97-6.88-.11-17.85,1.24-15.98,5.08.53,1.09,2.02,1.87,3.14,1.56Z"/><path d="M684.26,393.93c10.39-2.92,26-3.24,28.05,7.58.31,1.63,1.67,2.48,3.32,2.13,3.93-.82.68-12.51-10.06-15.31-9.14-2.38-25.21-1.04-24.19,3.66.2.91,1.83,2.24,2.88,1.94Z"/><path d="M764.28,547.14c-.63,1.68-.84,3.32.9,4.1,4.32,1.93,6.49-10.48,7.38-17.22,1.09-8.22-2.26-17.85-6.18-15.49-3.28,1.97,2.49,6.13,1.22,14.63-.72,4.79-1.63,9.5-3.32,13.98Z"/><path d="M778.26,456.48c1,.06,2.48-1.02,2.71-2.31l2.16-11.85.31-13.67c.03-1.12-1.72-2.39-2.63-2.35-.96.05-2.27,1.1-2.31,2.15l-.68,15.75-1.86,9.34c-.25,1.24,1.18,2.87,2.3,2.93Z"/><path d="M109.58,690.74l19.76-14.4,8.63-6.81c17.88-17.61,24.44-44.14,16.77-41.87-2.93.87-1.04,5.39-3.61,12.12-3.79,9.91-9.29,18.98-16.95,26.33l-9.86,7.65-17.84,13.01c-1.15.84-1.4,2.7-.72,3.6.84,1.1,2.4,1.41,3.82.37Z"/><path d="M179.55,1029.59l35.35,38.46,3.68-3.38-22.73-24.73c-2.21-2.41-9.44-10.15-14.84-15.94h-6.88c1.77,1.88,3.57,3.74,5.42,5.59Z"/><path d="M162.63,1002.24l-28.68-40.87-29.19-42.43c-17.25-27.04-33.02-54.82-46.51-83.96-8.09-17.46-14.52-35.23-20.95-53.27l-7.6-26.65-6.52-29.38c-2.26-10.19-1.92-20.48,1.06-30.52,7.48,5.07,14.76,8.08,22.8,10.95,14.47,5.16,29.44,7.41,44.85,8.1l20.35-1.18c19.09-2.64,37.49-7.83,55-15.79,9.6-4.36,17.97-10.21,25.82-16.98l5.81-5.01c2.69,16.93,7.04,33.06,14.11,48.56l19.58,42.87,21.22,42.38,18.77,32.27c8.14,12.65,16.97,24.4,27.46,35.12.11.12.31.31.48.49l.19-.09s0,0,0-.01c1.58-.77,3.37-1.51,5.26-2.11-18.5-18.24-36.69-46.81-48.2-69.79l-19.6-39.11-19.32-42.09c-7.74-16.87-12.51-34.29-15.16-52.87l5.87-6.38,7.43-8.26,5.85-8.38c11.38-16.31,14.31-33.97,14.6-53.75.11-7.48-.02-14.73-2.29-21.89-2.17-6.86-5.4-13.17-9.39-19.06-3.49-5.15-8.26-8.93-14.19-10.64,3.54-14.2.97-31.77-3.93-45.36-2.05-5.69-5.55-10.59-9.91-14.88-4.95-4.86-11.7-7.81-18.54-9.33-4.53-1.01-9.16-.8-13.83-.37-10.35.96-20.1,4.04-29.45,8.38-1.2.56-2.32,1.55-3.25,2.49-16.89-8.53-38.08-10.56-56.56-6.22-10.92,2.56-19.39,8.94-26.01,17.86-6.98,9.4-12.35,19.68-16.31,30.76-.77,2.16-1.03,4.46-1.2,6.47-9.27,3.5-17.35,8.87-22.9,16.92-3.65,5.3-5.32,11.36-6.05,17.8-3.06,26.87,10.59,53.24,14.24,82.39l1.72,13.75c.89,7.09,2.32,14.14,1.93,21.29-.33,6.18-8.34,20.33-2.88,44.6l6.12,27.2,8.12,28.21,18.25,47.1c7.39,17.08,15.98,33,24.92,49.29l22.79,38.28,31.2,45.51,25.63,36.74c5.66,8.12,11.8,15.5,18.49,22.59h6.88c-1.19-1.28-2.3-2.46-3.24-3.47-5.44-5.7-10.51-11.69-15.15-18.29ZM168.14,477.39c17.03-1.14,29.93,7.82,35.59,23.67,3.78,13.31,6.16,26.88,2.83,40.37-12.36-2.1-24.17-.03-35.29,6.12-3.79-21.55-7.14-40.79-24.72-55.07l-9.18-6.6c9.86-4.71,20.05-7.79,30.77-8.51ZM58.3,493.26c8.74-9.38,19.38-12.22,32.02-12.99,17.61-1.06,35.03,3.06,49.4,13.36l9.17,8.14c10.59,9.41,15.69,33.79,17.54,48.34l-10.87,8.01c-5.86,5.19-9.74,11.61-11.38,19.67-3.34-6.31-7.37-11.02-12.51-15.28l-15.27-12.64c-22.25-20.3-49.12-23.42-78.69-19.33,3.71-12.77,11.74-27.77,20.6-37.29ZM12.13,602.02c-4.14-14.9-7-37.55,1.81-49.99,6.33-8.94,16.15-14.82,27.16-16.65,11.74-1.95,23.68-1.79,35.37.23,12.37,2.14,23.39,7.14,32.94,15.02l13.9,11.49c4.34,3.58,8.42,7.12,12.12,11.3,11.24,12.69,1.9,27.25-9.21,37.72-3.57,3.37-7.22,6.22-11.54,8.5-8.44,4.45-17.01,7.14-26.54,8.28-7.86.94-15.53,1.17-23.12-.63-8.96-2.12-15.5-8.5-16.63-17.72-.51-4.12.96-7.67,3.85-10.62,3.98-4.08,8.69-7.54,14.24-9.41,6.6-2.22,12.46-.36,13.59-3.51.29-.81-.8-2.92-1.66-2.95-12.17-.52-20.86,3.59-29.44,11.93-5.05,4.9-6.81,11.16-5.1,17.93,4.04,16.03,18.49,21.13,34.23,20.74,15.58-.39,29.84-3.59,43.09-12.09,10.51-6.74,22.86-20.35,24.25-32.73,6.21,7.88,13.27,13.63,22.89,15.42,5.56,1.03,11.2,2.02,16.85.62,5.07-1.26,9.68-3.16,14.69-5.38,1.2-.53,1.87-2.21,1.67-3.09-.29-1.24-1.94-2.15-3.35-1.63l-14.2,5.19c-4.85,1.77-10.1.14-15.01-.73-6.01-1.06-10.26-4.14-14.67-7.99-3.89-3.4-6.11-7.25-5.05-12.74,1.29-6.69,4.88-12.46,10.17-17.01,7.6-6.54,16.27-11.54,26.07-14.25,8.01-2.21,16.23-1.92,24.2.03,9.27,2.27,13.91,11.02,17.93,19.4,3.05,6.35,4.53,12.98,4.72,20.1.27,9.94-.28,19.48-1.89,29.26-2.1,12.76-7.48,23.9-15.61,33.91l-14.37,16.09-14.48,12.72c-18.42,16.18-49.29,25.3-73.51,28.81-25.37,3.68-54.24-1.05-77.18-12.19l-9.67-5.49,1.46-5.17-2.28-20.81-1.87-14.76c-2.05-16.15-6.44-31.45-10.8-47.13Z"/><path d="M300.67,876.86l-.19.09c.2.22.35.44.24.52,1.62-.9,3.47-1.79,5.44-2.52-.07-.07-.15-.15-.22-.22-1.89.6-3.68,1.34-5.26,2.11,0,0,0,0,0,.01Z"/></svg>